<?xml version="1.0" encoding="UTF-8" standalone="no"?>
<svg width="679px" height="112px" viewBox="0 0 679 112" version="1.1" xmlns="http://www.w3.org/2000/svg" xmlns:xlink="http://www.w3.org/1999/xlink">
    <!-- Generator: Sketch 41 (35326) - http://www.bohemiancoding.com/sketch -->
    <title>BTC.com</title>
    <desc>Created with Sketch.</desc>
    <defs>
        <polygon id="path-1" points="135.001 85.9946 135.001 0.7426 0.4173 0.7426 0.4173 85.9946 135.001 85.9946"></polygon>
        <polygon id="path-3" points="0 0.5216 0 107.8436 95.9648 107.8436 95.9648 0.5216"></polygon>
        <polygon id="path-5" points="103.0186 0.36 0.2976 0.36 0.2976 111.9997 103.0186 111.9997 103.0186 0.36"></polygon>
    </defs>
    <g id="normal" stroke="none" stroke-width="1" fill="none" fill-rule="evenodd">
        <g id="BTC.com" transform="translate(0.000000, -1.000000)">
            <path d="M503.3008,69.3177 L503.3008,69.0087 C503.3008,58.6827 495.7458,50.0497 485.4188,50.0497 C474.7798,50.0497 467.9998,58.5287 467.9998,68.7027 L467.9998,69.0087 C467.9998,79.1867 475.3988,87.8197 485.7278,87.8197 C496.3658,87.8197 503.3008,79.3377 503.3008,69.3177 M439.6328,69.3177 L439.6328,69.0087 C439.6328,45.2697 459.0538,25.3827 485.7278,25.3827 C512.3998,25.3827 531.6658,44.9627 531.6658,68.7027 L531.6658,69.0087 C531.6658,92.7537 512.2398,112.6377 485.4188,112.6377 C458.8998,112.6377 439.6328,93.0597 439.6328,69.3177" id="Fill-1" fill="#26ABE2"></path>
            <path d="M415.6221,79.3372 C411.1551,84.7352 406.6821,87.9722 399.5891,87.9722 C389.7241,87.9722 382.9421,79.8002 382.9421,69.0092 L382.9421,68.7022 C382.9421,58.5282 389.8771,50.0492 399.4361,50.0492 C403.0361,50.0492 405.9631,50.9772 408.5341,52.6102 L408.5301,52.5882 C412.9451,55.8442 420.4661,54.7402 423.1921,52.6942 L434.7431,44.0352 C427.6481,32.9372 416.2431,25.5382 399.1291,25.5382 C372.7701,25.5382 354.5771,45.4222 354.5771,69.0092 L354.5771,69.3172 C354.5771,92.9052 372.9241,112.6382 398.2021,112.6382 C416.3951,112.6382 427.4951,104.9332 435.2031,93.5232 L415.6221,79.3372 Z" id="Fill-3" fill="#26ABE2"></path>
            <g id="Group-7" transform="translate(544.000000, 24.640000)">
                <mask id="mask-2" fill="white">
                    <use xlink:href="#path-1"></use>
                </mask>
                <g id="Clip-6"></g>
                <path d="M106.4813,0.7426 C94.3013,0.7426 85.8233,5.9826 78.5763,14.3106 C74.1083,5.6766 65.6303,0.7426 54.5283,0.7426 C42.8113,0.7426 35.1023,7.0636 29.7103,14.0006 L29.7103,2.5936 L11.2293,2.5936 C5.2603,2.5936 0.4173,7.4336 0.4173,13.4026 L0.4173,85.9946 L18.8643,85.9946 C24.8343,85.9946 29.6773,81.1526 29.6773,75.1816 L29.7103,40.6696 C29.7103,31.5756 34.6433,26.6406 41.5773,26.6406 C48.5163,26.6406 53.1433,31.5756 53.1433,40.6696 L53.1433,85.9946 L71.4673,85.9946 C77.4383,85.9946 82.2763,81.1526 82.2763,75.1816 L82.2763,40.6696 C82.2763,31.5756 87.3643,26.6406 94.3013,26.6406 C101.2413,26.6406 105.7083,31.5756 105.7083,40.6696 L105.7083,85.9946 L124.0653,85.9946 C130.0363,85.9946 134.8813,81.1526 134.8813,75.1816 L135.0013,31.2666 C135.0013,11.8436 124.2083,0.7426 106.4813,0.7426" id="Fill-5" fill="#26ABE2" mask="url(#mask-2)"></path>
            </g>
            <path d="M345.5811,95.6029 C345.5811,105.0129 337.9541,112.6399 328.5461,112.6399 C319.1361,112.6399 311.5091,105.0129 311.5091,95.6029 C311.5091,86.1929 319.1361,78.5659 328.5461,78.5659 C337.9541,78.5659 345.5811,86.1929 345.5811,95.6029" id="Fill-8" fill="#26ABE2"></path>
            <g id="Group-12" transform="translate(0.000000, 2.640000)">
                <mask id="mask-4" fill="white">
                    <use xlink:href="#path-3"></use>
                </mask>
                <g id="Clip-11"></g>
                <path d="M66.2188,74.0996 C66.2188,80.3946 61.1638,83.9216 51.9758,83.9216 L28.9698,83.9216 L28.9698,64.1526 L51.6498,64.1526 C61.6128,64.1526 66.2188,67.9666 66.2188,73.7926 L66.2188,74.0996 Z M28.9698,24.4206 L48.4318,24.4206 C57.1758,24.4206 61.9218,27.6446 61.9218,33.6326 L61.9218,33.9356 C61.9218,40.2306 56.7268,43.2936 47.6558,43.2936 L28.9698,43.2936 L28.9698,24.4206 Z M74.6548,51.7256 C84.1518,47.5886 91.2178,40.2306 91.2178,27.8066 L91.2178,27.4986 C91.2178,20.1406 88.5948,14.4616 84.3148,10.0146 C78.0188,3.8966 68.5218,0.5216 55.0298,0.5216 L-0.0002,0.5216 L-0.0002,97.0546 C-0.0002,102.9476 4.7238,107.7226 10.5878,107.8436 L55.3398,107.8436 C80.9508,107.8436 95.9648,96.6566 95.9648,78.2556 L95.9648,77.9516 C95.9648,63.3826 87.6748,56.0096 74.6548,51.7256 L74.6548,51.7256 Z" id="Fill-10" fill="#1F4079" mask="url(#mask-4)"></path>
            </g>
            <path d="M111.292,3.1619 C105.397,3.1619 100.624,7.8859 100.503,13.7499 L100.503,29.2239 L132.533,29.2239 L132.533,110.4839 L151.439,110.4839 C157.333,110.4839 162.163,105.7589 162.284,99.8959 L162.284,29.2239 L183.673,29.2239 C189.566,29.2239 194.341,24.5009 194.462,18.6369 L194.462,3.1619 L111.292,3.1619 Z" id="Fill-13" fill="#1F4079"></path>
            <g id="Group-17" transform="translate(199.000000, 0.640000)">
                <mask id="mask-6" fill="white">
                    <use xlink:href="#path-5"></use>
                </mask>
                <g id="Clip-16"></g>
                <path d="M80.6416,71.8027 C74.2056,79.6447 67.6006,84.8377 56.4116,84.8377 C41.3936,84.8377 30.8066,72.2697 30.8066,56.1727 L30.8066,55.8637 C30.8066,40.2347 41.3936,27.3577 56.4116,27.3577 C62.6006,27.3577 67.6156,29.2007 71.9686,32.3037 L71.9726,32.2967 C78.2726,36.8427 83.1526,37.3877 87.8626,33.7427 L102.2436,22.6127 C92.7626,9.5707 78.6256,0.3597 56.7206,0.3597 C24.2236,0.3597 0.2976,24.8947 0.2976,56.1727 L0.2976,56.4737 C0.2976,88.5297 24.9536,111.9997 55.6436,111.9997 C79.2606,111.9997 92.9086,101.7087 103.0186,87.7597 L80.6416,71.8027 Z" id="Fill-15" fill="#1F4079" mask="url(#mask-6)"></path>
            </g>
        </g>
    </g>
</svg>